<?xml version="1.0" encoding="utf-8"?>
<!-- Generator: Adobe Illustrator 22.0.1, SVG Export Plug-In . SVG Version: 6.00 Build 0)  -->
<!DOCTYPE svg PUBLIC "-//W3C//DTD SVG 1.0//EN" "http://www.w3.org/TR/2001/REC-SVG-20010904/DTD/svg10.dtd" [
	<!ENTITY st0 "fill:#DD2C01;">
	<!ENTITY st1 "enable-background:new    ;">
	<!ENTITY st2 "fill:#FFFFFF;">
]>
<svg version="1.0" id="图层_1" xmlns="http://www.w3.org/2000/svg" xmlns:xlink="http://www.w3.org/1999/xlink" x="0px" y="0px"
	 viewBox="0 0 64 64" style="enable-background:new 0 0 64 64;" xml:space="preserve">
<g id="图层_1_1_">
	<g>
		<g>
			<circle style="&st0;" cx="32" cy="32" r="31.5"/>
			<path style="&st0;" d="M32,1c17.1,0,31,13.9,31,31S49.1,63,32,63S1,49.1,1,32S14.9,1,32,1 M32,0C14.3,0,0,14.3,0,32
				s14.3,32,32,32s32-14.3,32-32S49.7,0,32,0L32,0z"/>
		</g>
	</g>
</g>
<g id="图层_2_1_">
	<g>
		<g style="&st1;">
			<path style="&st0;" d="M32.6,32.6v7.7h-1v-7.7h-7.9v-1h7.9V24h1v7.7H40v1H32.6z"/>
		</g>
		<g style="&st1;">
			<polygon style="&st2;" points="33.1,40.8 31.1,40.8 31.1,33.1 23.2,33.1 23.2,31.2 31.1,31.2 31.1,23.5 33.1,23.5 33.1,31.2 
				40.5,31.2 40.5,33.1 33.1,33.1 			"/>
		</g>
	</g>
</g>
</svg>
